<?xml version="1.0" standalone="no"?>
<!DOCTYPE svg PUBLIC "-//W3C//DTD SVG 20010904//EN"
 "http://www.w3.org/TR/2001/REC-SVG-20010904/DTD/svg10.dtd">
<svg version="1.0" xmlns="http://www.w3.org/2000/svg"
 width="1024.000000pt" height="1024.000000pt" viewBox="0 0 1024.000000 1024.000000"
 preserveAspectRatio="xMidYMid meet">
<metadata>
Created by potrace 1.11, written by Peter Selinger 2001-2013
</metadata>
<g transform="translate(0.000000,1024.000000) scale(0.100000,-0.100000)"
fill="#000000" stroke="none">
<path d="M4246 10200 c-43 -47 -43 -50 -50 -217 -21 -480 -167 -916 -482
-1441 -87 -143 -273 -424 -457 -690 -355 -510 -461 -687 -571 -961 -138 -339
-199 -641 -199 -976 0 -205 15 -334 59 -510 122 -484 446 -924 904 -1228 135
-90 372 -205 525 -256 152 -50 323 -87 337 -73 7 7 -16 38 -69 95 -201 217
-305 442 -335 725 -38 366 114 880 349 1174 135 170 261 399 323 588 42 130
78 314 86 440 8 117 22 157 60 166 30 8 48 -1 160 -76 334 -223 586 -580 684
-969 l12 -44 23 29 c75 92 135 262 135 386 0 80 19 108 73 108 28 0 45 -14
132 -103 132 -136 220 -261 304 -432 138 -279 189 -517 178 -824 -15 -440
-174 -813 -487 -1144 -50 -52 -90 -99 -90 -105 0 -5 6 -14 13 -20 22 -19 287
84 477 185 418 222 807 586 1033 965 156 262 259 559 312 898 23 145 31 494
16 672 -62 735 -370 1547 -834 2198 -93 130 -228 294 -262 316 -65 42 -147 34
-201 -20 -38 -38 -54 -89 -54 -176 0 -131 -43 -305 -111 -449 -56 -120 -198
-325 -214 -309 -3 3 -21 65 -41 137 -143 543 -426 1034 -829 1436 -200 201
-396 354 -626 490 -91 54 -95 55 -170 55 l-77 0 -36 -40z"/>
<path d="M7780 3860 c-30 -5 -82 -17 -115 -28 -33 -10 -607 -261 -1275 -557
-668 -296 -1229 -542 -1247 -548 -29 -9 -85 13 -740 298 -1382 601 -1779 772
-1827 788 -86 29 -206 40 -300 28 -170 -23 -303 -88 -421 -206 -92 -93 -135
-160 -178 -282 -29 -82 -31 -97 -31 -223 0 -119 3 -144 27 -215 51 -155 155
-293 286 -379 42 -28 299 -144 724 -327 361 -155 657 -285 657 -289 0 -3 -295
-131 -654 -284 -429 -182 -677 -293 -719 -321 -138 -93 -251 -252 -298 -421
-28 -100 -31 -256 -5 -359 63 -260 283 -466 556 -521 90 -18 214 -15 280 7 43
14 179 72 1510 650 586 254 1074 462 1085 461 11 0 355 -145 765 -322 2025
-874 1866 -809 2007 -810 324 -1 620 229 704 547 28 106 28 260 0 366 -44 167
-158 327 -299 421 -37 24 -177 91 -312 148 -135 58 -428 183 -652 278 -225 95
-408 176 -408 179 0 4 287 130 638 280 350 151 667 291 704 313 167 96 289
262 339 459 19 77 17 249 -4 329 -69 259 -269 460 -520 524 -75 19 -208 27
-277 16z"/>
</g>
</svg>
