<svg xmlns="http://www.w3.org/2000/svg" viewBox="0 0 10.88 16"><defs><style>.cls-1{fill:#333;}</style></defs><g id="Layer_2" data-name="Layer 2"><g id="Layer_1-2" data-name="Layer 1"><path class="cls-1" d="M10.2,13.82l-2-.85,2-.86a1.12,1.12,0,1,0-.89-2.06L5.44,11.76,1.57,10.08a1.13,1.13,0,0,0-1.48.59,1.12,1.12,0,0,0,.59,1.47l2,.86-2,.85a1.15,1.15,0,0,0-.59,1.48,1.12,1.12,0,0,0,1,.67.91.91,0,0,0,.43-.1l3.88-1.68L9.3,15.9a1,1,0,0,0,.43.1,1.14,1.14,0,0,0,.47-2.18Z"/><path class="cls-1" d="M4.15,10s.08,0,0-.08c-1.2-1.12-.31-2.73-.1-3a2.86,2.86,0,0,0,.69-1.8c0-.08.09-.15.15-.11A2.59,2.59,0,0,1,6.16,6.71,1,1,0,0,0,6.41,6a.11.11,0,0,1,.19-.08,2.69,2.69,0,0,1,0,4,.05.05,0,0,0,.06.08A4.19,4.19,0,0,0,8,9.28c2.82-2.21,1-6.15-.21-7.44A.25.25,0,0,0,7.37,2a1.89,1.89,0,0,1-.52,1.33A5,5,0,0,0,4.37,0,.26.26,0,0,0,4,.26C4,1.87,3,3,2.09,4.37S.8,7.8,2.51,9.24A3.49,3.49,0,0,0,4.15,10Z"/></g></g></svg>